{"title":"Neighbors (2014) HDRip XviD By -=BGood577=-","uid":10755177,"size":1147055416,"categoryP":"video","categoryS":"hd___movies","magnet":"?xt=urn:btih:30c8a710499894a6bd2a341e4e94361d6e33bf52&amp;dn=Neighbors+%282014%29+HDRip+XviD+By+-%3DBGood577%3D-&amp;tr=udp%3A%2F%2Ftracker.openbittorrent.com%3A80&amp;tr=udp%3A%2F%2Fopen.demonii.com%3A1337&amp;tr=udp%3A%2F%2Ftracker.coppersurfer.tk%3A6969&amp;tr=udp%3A%2F%2Fexodus.desync.com%3A6969","seeders":1,"leechers":0,"uploader":"inovai","files":3,"time":1407923740,"description":"Bad Neighbors (2014) HDRip XviD By -=BGood577=-\n\nScreenshots:\n &lt;a href=&quot;\nhttp://img.primetimeshow.in/share.php?id=FB56_53EB1955&quot; rel=&quot;nofollow&quot; target=&quot;_NEW&quot;&gt;\nhttp://img.primetimeshow.in/share.php?id=FB56_53EB1955&lt;/a&gt;\n &lt;a href=&quot;\nhttp://img.primetimeshow.in/share.php?id=38E7_53EB1955&quot; rel=&quot;nofollow&quot; target=&quot;_NEW&quot;&gt;\nhttp://img.primetimeshow.in/share.php?id=38E7_53EB1955&lt;/a&gt;\n &lt;a href=&quot;\nhttp://img.primetimeshow.in/share.php?id=A1C4_53EB1955&quot; rel=&quot;nofollow&quot; target=&quot;_NEW&quot;&gt;\nhttp://img.primetimeshow.in/share.php?id=A1C4_53EB1955&lt;/a&gt;\n &lt;a href=&quot;\nhttp://img.primetimeshow.in/share.php?id=C066_53EB1955&quot; rel=&quot;nofollow&quot; target=&quot;_NEW&quot;&gt;\nhttp://img.primetimeshow.in/share.php?id=C066_53EB1955&lt;/a&gt;\n &lt;a href=&quot;\nhttp://img.primetimeshow.in/share.php?id=BF42_53EB1955&quot; rel=&quot;nofollow&quot; target=&quot;_NEW&quot;&gt;\nhttp://img.primetimeshow.in/share.php?id=BF42_53EB1955&lt;/a&gt;\n\n General: Info:\nComplete name : Neighbors (2014) HDRip XviD By -=BGood577=-\nFormat : MPEG-4\nFormat profile : QuickTime\nCodec ID : qt\nFile size : 1.06 GiB\nDuration : 1h 36mn\nOverall bit rate : 1 561 Kbps\nWriting application : Lavf52.0.0\nComment : QuickTime 6.0 or greater\nVideo:\nID : 1\nFormat : MPEG-4 Visual\nFormat profile : Simple@L1\nFormat settings, BVOP : No\nFormat settings, QPel : No\nFormat settings, GMC : No warppoints\nFormat settings, Matrix : Default (H.263)\nCodec ID : 20\nDuration : 1h 36mn\nBit rate mode : Variable\nBit rate : 1 493 Kbps\nWidth : 640 pixels\nHeight : 272 pixels\nDisplay aspect ratio : 2.35:1\nFrame rate mode : Constant\nFrame rate : 23.976 fps\nColor space : YUV\nChroma subsampling : 4:2:0\nBit depth : 8 bits\nScan type : Progressive\nCompression mode : Lossy\nBits/(Pixel*Frame) : 0.358\nStream size : 1.01 GiB (96%)\nWriting library : Lavc52.48.0\nLanguage : English\nAudio:\nID : 2\nFormat : AAC\nFormat/Info : Advanced Audio Codec\nFormat version : Version 4\nFormat profile : LC\nCodec ID : 40\nDuration : 1h 36mn\nBit rate mode : Variable\nBit rate : 64.2 Kbps\nChannel(s) : 2 channels\nChannel positions : Front: L R\nSampling rate : 48.0 KHz\nCompression mode : Lossy\nStream size : 44.4 MiB (4%)\nLanguage : English\n\nThanks to BGood577!!\n\nSeed and Enjoy!!","torrent":{"xt":"urn:btih:30c8a710499894a6bd2a341e4e94361d6e33bf52","amp;dn":"Neighbors+%282014%29+HDRip+XviD+By+-%3DBGood577%3D-","amp;tr":["udp%3A%2F%2Ftracker.openbittorrent.com%3A80","udp%3A%2F%2Fopen.demonii.com%3A1337","udp%3A%2F%2Ftracker.coppersurfer.tk%3A6969","udp%3A%2F%2Fexodus.desync.com%3A6969"],"infoHash":"30c8a710499894a6bd2a341e4e94361d6e33bf52","infoHashBuffer":{"type":"Buffer","data":[48,200,167,16,73,152,148,166,189,42,52,30,78,148,54,29,110,51,191,82]},"announce":[],"urlList":[]}}